<mxfile host="app.diagrams.net" agent="Mozilla/5.0 (X11; Linux x86_64) AppleWebKit/537.36 (KHTML, like Gecko) Chrome/130.0.0.0 Safari/537.36" version="24.7.16">
  <diagram name="Page-1" id="49gcWGd39xQcKLTfRNpA">
    <mxGraphModel dx="2398" dy="956" grid="1" gridSize="10" guides="1" tooltips="1" connect="1" arrows="1" fold="1" page="1" pageScale="1" pageWidth="850" pageHeight="1100" math="0" shadow="0">
      <root>
        <mxCell id="0" />
        <mxCell id="1" parent="0" />
        <mxCell id="lfK6fHKkrQFKQQQSv6Dr-43" value="ComplexModel" style="rounded=1;whiteSpace=wrap;html=1;verticalAlign=top;" vertex="1" parent="1">
          <mxGeometry x="-130" y="280" width="1420" height="250" as="geometry" />
        </mxCell>
        <mxCell id="lfK6fHKkrQFKQQQSv6Dr-23" style="edgeStyle=orthogonalEdgeStyle;rounded=0;orthogonalLoop=1;jettySize=auto;html=1;entryX=0;entryY=0.5;entryDx=0;entryDy=0;" edge="1" parent="1" source="lfK6fHKkrQFKQQQSv6Dr-14" target="lfK6fHKkrQFKQQQSv6Dr-22">
          <mxGeometry relative="1" as="geometry" />
        </mxCell>
        <mxCell id="lfK6fHKkrQFKQQQSv6Dr-14" value="branch1" style="rounded=1;whiteSpace=wrap;html=1;verticalAlign=top;fillColor=#dae8fc;strokeColor=#6c8ebf;" vertex="1" parent="1">
          <mxGeometry x="180" y="310" width="550" height="100" as="geometry" />
        </mxCell>
        <mxCell id="lfK6fHKkrQFKQQQSv6Dr-20" style="edgeStyle=orthogonalEdgeStyle;rounded=0;orthogonalLoop=1;jettySize=auto;html=1;entryX=0;entryY=0.5;entryDx=0;entryDy=0;" edge="1" parent="1" source="lfK6fHKkrQFKQQQSv6Dr-5" target="lfK6fHKkrQFKQQQSv6Dr-14">
          <mxGeometry relative="1" as="geometry" />
        </mxCell>
        <mxCell id="lfK6fHKkrQFKQQQSv6Dr-21" style="edgeStyle=orthogonalEdgeStyle;rounded=0;orthogonalLoop=1;jettySize=auto;html=1;entryX=0;entryY=0.5;entryDx=0;entryDy=0;" edge="1" parent="1" source="lfK6fHKkrQFKQQQSv6Dr-5" target="lfK6fHKkrQFKQQQSv6Dr-16">
          <mxGeometry relative="1" as="geometry" />
        </mxCell>
        <mxCell id="lfK6fHKkrQFKQQQSv6Dr-5" value="Seq" style="rounded=1;whiteSpace=wrap;html=1;horizontal=1;verticalAlign=top;fillColor=#dae8fc;strokeColor=#6c8ebf;" vertex="1" parent="1">
          <mxGeometry x="-120" y="400" width="200" height="60" as="geometry" />
        </mxCell>
        <mxCell id="lfK6fHKkrQFKQQQSv6Dr-4" style="edgeStyle=orthogonalEdgeStyle;rounded=0;orthogonalLoop=1;jettySize=auto;html=1;" edge="1" parent="1" source="lfK6fHKkrQFKQQQSv6Dr-2" target="lfK6fHKkrQFKQQQSv6Dr-3">
          <mxGeometry relative="1" as="geometry" />
        </mxCell>
        <mxCell id="lfK6fHKkrQFKQQQSv6Dr-2" value="0" style="rounded=1;whiteSpace=wrap;html=1;" vertex="1" parent="1">
          <mxGeometry x="-110" y="420" width="70" height="30" as="geometry" />
        </mxCell>
        <mxCell id="lfK6fHKkrQFKQQQSv6Dr-3" value="1" style="rounded=1;whiteSpace=wrap;html=1;" vertex="1" parent="1">
          <mxGeometry y="420" width="70" height="30" as="geometry" />
        </mxCell>
        <mxCell id="lfK6fHKkrQFKQQQSv6Dr-6" value="inner_seq_1" style="rounded=1;whiteSpace=wrap;html=1;horizontal=1;verticalAlign=top;fillColor=#dae8fc;strokeColor=#6c8ebf;" vertex="1" parent="1">
          <mxGeometry x="290" y="340" width="200" height="60" as="geometry" />
        </mxCell>
        <mxCell id="lfK6fHKkrQFKQQQSv6Dr-7" style="edgeStyle=orthogonalEdgeStyle;rounded=0;orthogonalLoop=1;jettySize=auto;html=1;" edge="1" parent="1" source="lfK6fHKkrQFKQQQSv6Dr-8" target="lfK6fHKkrQFKQQQSv6Dr-9">
          <mxGeometry relative="1" as="geometry" />
        </mxCell>
        <mxCell id="lfK6fHKkrQFKQQQSv6Dr-8" value="0" style="rounded=1;whiteSpace=wrap;html=1;" vertex="1" parent="1">
          <mxGeometry x="300" y="360" width="70" height="30" as="geometry" />
        </mxCell>
        <mxCell id="lfK6fHKkrQFKQQQSv6Dr-9" value="1" style="rounded=1;whiteSpace=wrap;html=1;" vertex="1" parent="1">
          <mxGeometry x="410" y="360" width="70" height="30" as="geometry" />
        </mxCell>
        <mxCell id="lfK6fHKkrQFKQQQSv6Dr-10" value="inner_seq_2" style="rounded=1;whiteSpace=wrap;html=1;horizontal=1;verticalAlign=top;fillColor=#dae8fc;strokeColor=#6c8ebf;" vertex="1" parent="1">
          <mxGeometry x="520" y="340" width="200" height="60" as="geometry" />
        </mxCell>
        <mxCell id="lfK6fHKkrQFKQQQSv6Dr-11" style="edgeStyle=orthogonalEdgeStyle;rounded=0;orthogonalLoop=1;jettySize=auto;html=1;" edge="1" parent="1" source="lfK6fHKkrQFKQQQSv6Dr-12" target="lfK6fHKkrQFKQQQSv6Dr-13">
          <mxGeometry relative="1" as="geometry" />
        </mxCell>
        <mxCell id="lfK6fHKkrQFKQQQSv6Dr-12" value="0" style="rounded=1;whiteSpace=wrap;html=1;" vertex="1" parent="1">
          <mxGeometry x="530" y="360" width="70" height="30" as="geometry" />
        </mxCell>
        <mxCell id="lfK6fHKkrQFKQQQSv6Dr-13" value="1" style="rounded=1;whiteSpace=wrap;html=1;" vertex="1" parent="1">
          <mxGeometry x="640" y="360" width="70" height="30" as="geometry" />
        </mxCell>
        <mxCell id="lfK6fHKkrQFKQQQSv6Dr-15" value="0" style="rounded=1;whiteSpace=wrap;html=1;" vertex="1" parent="1">
          <mxGeometry x="190" y="360" width="70" height="30" as="geometry" />
        </mxCell>
        <mxCell id="lfK6fHKkrQFKQQQSv6Dr-24" style="edgeStyle=orthogonalEdgeStyle;rounded=0;orthogonalLoop=1;jettySize=auto;html=1;entryX=0;entryY=0.5;entryDx=0;entryDy=0;" edge="1" parent="1" source="lfK6fHKkrQFKQQQSv6Dr-16" target="lfK6fHKkrQFKQQQSv6Dr-22">
          <mxGeometry relative="1" as="geometry">
            <Array as="points">
              <mxPoint x="760" y="480" />
              <mxPoint x="760" y="415" />
            </Array>
          </mxGeometry>
        </mxCell>
        <mxCell id="lfK6fHKkrQFKQQQSv6Dr-16" value="branch2" style="rounded=1;whiteSpace=wrap;html=1;verticalAlign=top;fillColor=#dae8fc;strokeColor=#6c8ebf;" vertex="1" parent="1">
          <mxGeometry x="180" y="440" width="250" height="80" as="geometry" />
        </mxCell>
        <mxCell id="lfK6fHKkrQFKQQQSv6Dr-19" value="" style="edgeStyle=orthogonalEdgeStyle;rounded=0;orthogonalLoop=1;jettySize=auto;html=1;" edge="1" parent="1" source="lfK6fHKkrQFKQQQSv6Dr-17" target="lfK6fHKkrQFKQQQSv6Dr-18">
          <mxGeometry relative="1" as="geometry" />
        </mxCell>
        <mxCell id="lfK6fHKkrQFKQQQSv6Dr-17" value="0" style="rounded=1;whiteSpace=wrap;html=1;" vertex="1" parent="1">
          <mxGeometry x="200" y="480" width="70" height="30" as="geometry" />
        </mxCell>
        <mxCell id="lfK6fHKkrQFKQQQSv6Dr-18" value="1" style="rounded=1;whiteSpace=wrap;html=1;" vertex="1" parent="1">
          <mxGeometry x="350" y="480" width="70" height="30" as="geometry" />
        </mxCell>
        <mxCell id="lfK6fHKkrQFKQQQSv6Dr-26" value="" style="edgeStyle=orthogonalEdgeStyle;rounded=0;orthogonalLoop=1;jettySize=auto;html=1;" edge="1" parent="1" source="lfK6fHKkrQFKQQQSv6Dr-22" target="lfK6fHKkrQFKQQQSv6Dr-25">
          <mxGeometry relative="1" as="geometry" />
        </mxCell>
        <mxCell id="lfK6fHKkrQFKQQQSv6Dr-22" value="fc_combine" style="rounded=1;whiteSpace=wrap;html=1;" vertex="1" parent="1">
          <mxGeometry x="790" y="400" width="70" height="30" as="geometry" />
        </mxCell>
        <mxCell id="lfK6fHKkrQFKQQQSv6Dr-25" value="fc_output" style="rounded=1;whiteSpace=wrap;html=1;" vertex="1" parent="1">
          <mxGeometry x="890" y="400" width="70" height="30" as="geometry" />
        </mxCell>
        <mxCell id="lfK6fHKkrQFKQQQSv6Dr-27" value="module_list" style="rounded=1;whiteSpace=wrap;html=1;verticalAlign=top;fillColor=#d5e8d4;strokeColor=#82b366;" vertex="1" parent="1">
          <mxGeometry x="990" y="375" width="280" height="80" as="geometry" />
        </mxCell>
        <mxCell id="lfK6fHKkrQFKQQQSv6Dr-30" style="edgeStyle=orthogonalEdgeStyle;rounded=0;orthogonalLoop=1;jettySize=auto;html=1;" edge="1" parent="1" source="lfK6fHKkrQFKQQQSv6Dr-31" target="lfK6fHKkrQFKQQQSv6Dr-32">
          <mxGeometry relative="1" as="geometry" />
        </mxCell>
        <mxCell id="lfK6fHKkrQFKQQQSv6Dr-31" value="0" style="rounded=1;whiteSpace=wrap;html=1;" vertex="1" parent="1">
          <mxGeometry x="1010" y="400" width="70" height="30" as="geometry" />
        </mxCell>
        <mxCell id="lfK6fHKkrQFKQQQSv6Dr-34" value="" style="edgeStyle=orthogonalEdgeStyle;rounded=0;orthogonalLoop=1;jettySize=auto;html=1;" edge="1" parent="1" source="lfK6fHKkrQFKQQQSv6Dr-32" target="lfK6fHKkrQFKQQQSv6Dr-33">
          <mxGeometry relative="1" as="geometry" />
        </mxCell>
        <mxCell id="lfK6fHKkrQFKQQQSv6Dr-37" value="" style="edgeStyle=orthogonalEdgeStyle;rounded=0;orthogonalLoop=1;jettySize=auto;html=1;" edge="1" parent="1" source="lfK6fHKkrQFKQQQSv6Dr-32" target="lfK6fHKkrQFKQQQSv6Dr-36">
          <mxGeometry relative="1" as="geometry" />
        </mxCell>
        <mxCell id="lfK6fHKkrQFKQQQSv6Dr-32" value="1" style="rounded=1;whiteSpace=wrap;html=1;" vertex="1" parent="1">
          <mxGeometry x="1100" y="400" width="70" height="30" as="geometry" />
        </mxCell>
        <mxCell id="lfK6fHKkrQFKQQQSv6Dr-33" value="2" style="rounded=1;whiteSpace=wrap;html=1;" vertex="1" parent="1">
          <mxGeometry x="1190" y="400" width="70" height="30" as="geometry" />
        </mxCell>
        <mxCell id="lfK6fHKkrQFKQQQSv6Dr-35" style="edgeStyle=orthogonalEdgeStyle;rounded=0;orthogonalLoop=1;jettySize=auto;html=1;entryX=0;entryY=0.5;entryDx=0;entryDy=0;" edge="1" parent="1" source="lfK6fHKkrQFKQQQSv6Dr-25" target="lfK6fHKkrQFKQQQSv6Dr-31">
          <mxGeometry relative="1" as="geometry" />
        </mxCell>
        <mxCell id="lfK6fHKkrQFKQQQSv6Dr-42" style="edgeStyle=orthogonalEdgeStyle;rounded=0;orthogonalLoop=1;jettySize=auto;html=1;" edge="1" parent="1" source="lfK6fHKkrQFKQQQSv6Dr-36" target="lfK6fHKkrQFKQQQSv6Dr-41">
          <mxGeometry relative="1" as="geometry" />
        </mxCell>
        <mxCell id="lfK6fHKkrQFKQQQSv6Dr-36" value="branch_output" style="rounded=1;whiteSpace=wrap;html=1;" vertex="1" parent="1">
          <mxGeometry x="1095" y="467" width="80" height="30" as="geometry" />
        </mxCell>
        <mxCell id="lfK6fHKkrQFKQQQSv6Dr-41" value="branch_logit" style="rounded=1;whiteSpace=wrap;html=1;" vertex="1" parent="1">
          <mxGeometry x="1195" y="467" width="70" height="30" as="geometry" />
        </mxCell>
      </root>
    </mxGraphModel>
  </diagram>
</mxfile>
